# xmcd CD Database Entry
#
# Track frame offsets:
# 150
# 12752
# 32849
# 47632
# 61636
# 81284
# 93752
# 122664
# 140685
# 156879
# 169605
# 187788
# 203764
# 216649
# 233585
# 249525
# 263695
# 280326
# 296643
# 315854
# 330261
#
# Disc length: 4620 seconds
#
# Revision: 1
# Processed by: cddbd v1.4PL0 Copyright (c) Steve Scherf et al.
# Submitted via: tcd 2.0b
#
DISCID=18120a15
DTITLE=Fleetwood Mac
DYEAR=1900
DGENRE=
TTITLE0=Big Love
TTITLE1=The chain
TTITLE2=Landslide
TTITLE3=Over my head
TTITLE4=Gypsy
TTITLE5=Monday morning
TTITLE6=Sara
TTITLE7=Family man
TTITLE8=Seven wonders
TTITLE9=Man of the world
TTITLE10=Say you love me
TTITLE11=Tusk
TTITLE12=Black magic woman
TTITLE13=Rhiannon
TTITLE14=You make loving fun
TTITLE15=Albatross
TTITLE16=Everywhere
TTITLE17=Little lies
TTITLE18=Dreams
TTITLE19=Don't stop
TTITLE20=Go your own way
EXTD=The Very Best Of
EXTT0=
EXTT1=
EXTT2=
EXTT3=
EXTT4=
EXTT5=
EXTT6=
EXTT7=
EXTT8=
EXTT9=
EXTT10=
EXTT11=
EXTT12=
EXTT13=
EXTT14=
EXTT15=
EXTT16=
EXTT17=
EXTT18=
EXTT19=
EXTT20=
PLAYORDER=
